<svg id="canvas" height="auto" xmlns="http://www.w3.org/2000/svg" version="1.1" xmlns:xlink="http://www.w3.org/1999/xlink" viewBox="0 0 1920 1080" width="auto" style="width: auto; height: auto;"><rect width="1920" height="1080" fill="#97c3e3"/><g transform="matrix(0.7175385887288437,-0.6965187532902609,0.6965187532902609,0.7175385887288437,-859.1628979620241,261.6643998822751)"><rect width="1101.4535850411492" height="413.1528915230279" fill="#4b8dbc" x="0" y="-100" rx="15" ry="15"/><rect width="1101.4535850411492" height="482.8874341770924" fill="#325d7c" x="1121.4535850411492" y="0" rx="15" ry="15"/><rect width="1101.4535850411492" height="514.6124086538794" fill="#25455c" x="0" y="333.1528915230279" rx="15" ry="15"/><rect width="1101.4535850411492" height="360.7031907110051" fill="#58a5dc" x="1121.4535850411492" y="502.8874341770924" rx="15" ry="15"/><rect width="1101.4535850411492" height="502.7439361805791" fill="#325d7c" x="0" y="867.7653001769072" rx="15" ry="15"/><rect width="1101.4535850411492" height="431.2286398267306" fill="#3e759c" x="1121.4535850411492" y="883.5906248880975" rx="15" ry="15"/><rect width="1101.4535850411492" height="538.9359898013661" fill="#4b8dbc" x="0" y="1390.5092363574863" rx="15" ry="15"/><rect width="1101.4535850411492" height="328.3938153125298" fill="#4b8dbc" x="1121.4535850411492" y="1334.819264714828" rx="15" ry="15"/><rect width="1101.4535850411492" height="532.1841456426594" fill="#25455c" x="0" y="1949.4452261588524" rx="15" ry="15"/><rect width="1101.4535850411492" height="494.2017825601405" fill="#58a5dc" x="1121.4535850411492" y="1683.2130800273578" rx="15" ry="15"/><rect width="1101.4535850411492" height="531.9657416667426" fill="#3e759c" x="0" y="2501.6293718015118" rx="15" ry="15"/><rect width="1101.4535850411492" height="246.0690929473811" fill="#325d7c" x="1121.4535850411492" y="2197.414862587498" rx="15" ry="15"/></g></svg>