<svg version="1.2" xmlns="http://www.w3.org/2000/svg" viewBox="0 0 512 512" width="512" height="512">
	<title>zephyr-logo</title>
	<style>
		.s0 { fill: #000000 } 
	</style>
	<path class="s0" d="m250.2 76.4c5.8-0.8 12.6-0.5 17.9 1.9 21.6 13.9 46.6 25.1 67.8 39.2 16 10.6 13.1 25.6 13.2 42.2 0.4 39.5 0.4 79.4 0 119-0.1 16.4 3.2 30.4-11.2 41.9l-52 30.3c-1.5 16.3 0.7 33.6-0.3 49.8-0.5 7.1-2.8 14.9-7.2 20.5-5.2 6.8-15.3 10.5-22.4 15.1-14.2-7.1-28.2-14.9-29.6-32.6-1.2-16.4 1.4-34.6 0.1-50.9-0.1-0.7 0-1.3-0.4-1.9l-49.3-28.6c-17.4-11.7-13.7-25-13.9-43.6-0.4-44.8-1.2-90.3-0.8-135.5 0.7-9.9 4.3-18.3 12-24.6 22.3-12 43.6-26.3 66-38 3.1-1.6 6.8-3.7 10.1-4.2zm15.9 115.8l62.1-35.5c0.6-0.4 0.7-0.9 0.8-1.5 0.4-2.8 0.3-12.1-0.1-14.9-0.5-3.6-3-5.3-5.7-7-20-12.9-42.5-23.3-62.6-36.3-5.7-2.5-8-0.3-13 2.3-16.8 8.8-35 19.6-51.3 29.4-4.1 2.5-12.1 6.2-13.1 10.9-0.4 1.9-0.4 15.8 0.2 16.7l43.8 25.8v22.1l-44.2-24.7v24.7l44.2 24.7v23.2l-44.2-25.4v24.3l44.2 26.2v22.1l-44.2-24.7v25.1c0 0.7 3 5 4.3 5.5l58.6 33.8v-190.2h19.1c0 0 1.1 1.1 1.1 1.1v42.3zm0 47.9l62.8-36.3v-24.3l-62.8 36.3zm62.8-12.7l-62.8 35.2v24.7l49.9-28.3c1.5-1.5 12.9-7.2 12.9-8zm0 72.9v-25.8l-62.8 36.3v28.1l60-34.4c0.5-0.4 2.7-3.8 2.8-4.2zm-63.6 62.6c-2.2 0.1-7.9 5-9.3 5-2 0-6.9-4.8-9.4-5v40c0 0.8 1.6 4.3 2.3 5.3 0.8 1.1 5.9 4.8 7.1 4.8 1 0 5.8-3.4 6.7-4.5 0.7-0.8 2.6-4.1 2.6-4.8 0 0 0-40.8 0-40.8z"/>
</svg>